<svg id="Group_63" data-name="Group 63" xmlns="http://www.w3.org/2000/svg" width="180.211" height="61.427" viewBox="0 0 180.211 61.427">
  <path id="Path_44" data-name="Path 44" d="M-460.385,215.739V154.312h180.211v61.427Zm133.75-21.255a20.167,20.167,0,0,1-.119,3.71,4.84,4.84,0,0,1-1.447,2.769,5.9,5.9,0,0,1-3.458,1.541,17.435,17.435,0,0,1-4.093.008,13.642,13.642,0,0,1-6.013-2.212c-.22-.145-.223-.151-.374.07q-.63.919-1.253,1.842-1.132,1.668-2.263,3.336c-.165.243-.164.25.092.425.37.252.739.507,1.119.744a17.265,17.265,0,0,0,4.1,1.88,24.623,24.623,0,0,0,7.012.964,23.36,23.36,0,0,0,4.365-.327,13.364,13.364,0,0,0,5.361-2.077,10.452,10.452,0,0,0,3.564-4.217,16.822,16.822,0,0,0,1.421-5.838c.1-1.188.092-2.379.092-3.57q0-7.393,0-14.786,0-3.661,0-7.321c0-.329,0-.333-.286-.333q-3.291,0-6.582,0c-.27,0-.275.006-.275.273,0,.9,0,1.793,0,2.689,0,.084.044.186-.06.258-.075-.08-.153-.152-.217-.235a8.033,8.033,0,0,0-3.089-2.3,12.208,12.208,0,0,0-5.239-1.139,10.869,10.869,0,0,0-5.289,1.322,9.789,9.789,0,0,0-4.749,5.646,19.992,19.992,0,0,0-.923,7.6,19.72,19.72,0,0,0,1.077,5.279,8.919,8.919,0,0,0,2.486,3.848,10.526,10.526,0,0,0,2.435,1.556,13.245,13.245,0,0,0,5.922,1.284,10.123,10.123,0,0,0,2.753-.411,8.265,8.265,0,0,0,2.808-1.295C-327.369,195.163-327.01,194.827-326.635,194.484Zm-27.447-1.111a.787.787,0,0,1,.035.364c0,.825,0,1.651,0,2.476,0,.322,0,.322.337.325h.106q3.2,0,6.4,0c.466,0,.433.073.433-.436q0-6.173,0-12.346a30.83,30.83,0,0,0-.232-4.162,14.4,14.4,0,0,0-.956-3.863,8.145,8.145,0,0,0-2.9-3.575,10.262,10.262,0,0,0-4.364-1.632,20.786,20.786,0,0,0-5.535-.084,16.949,16.949,0,0,0-6.479,2.091,13.208,13.208,0,0,0-2.341,1.7c-.182.165-.181.17-.008.352.195.205.393.407.591.609q1.645,1.682,3.29,3.363c.159.162.167.164.325-.007.233-.251.482-.485.738-.711a7.983,7.983,0,0,1,5.776-2.157,5.33,5.33,0,0,1,2.943.969,4.178,4.178,0,0,1,1.841,3.377c.012.252,0,.256-.246.261-1.026.022-2.051.048-3.077.062a31.216,31.216,0,0,0-5.689.581,13.8,13.8,0,0,0-5.077,1.961,6.931,6.931,0,0,0-2.663,3.218,8.418,8.418,0,0,0-.492,4.24,7.047,7.047,0,0,0,3.407,5.354,10.314,10.314,0,0,0,4.965,1.466,12.264,12.264,0,0,0,4.762-.686,7.534,7.534,0,0,0,3.887-2.921C-354.249,193.494-354.223,193.389-354.082,193.373Zm62.773-9.841c-.045-.426-.039-1.027-.1-1.626a13.6,13.6,0,0,0-1.393-4.825,11.919,11.919,0,0,0-5.483-5.468,13.3,13.3,0,0,0-7.526-1.256,13.165,13.165,0,0,0-4.13,1.164,12.078,12.078,0,0,0-6.458,7.487,15.228,15.228,0,0,0-.67,5.754,14.14,14.14,0,0,0,1.383,5.44,11.976,11.976,0,0,0,3.9,4.631,13,13,0,0,0,7.615,2.333,13.286,13.286,0,0,0,4.035-.622,11.99,11.99,0,0,0,7.684-6.952A15.125,15.125,0,0,0-291.309,183.532Zm-138.3,6.309a3.82,3.82,0,0,1-1.451.5,14.149,14.149,0,0,1-2.538.14,5.953,5.953,0,0,1-1.463-.226A2.658,2.658,0,0,1-437,188.33a6.888,6.888,0,0,1-.238-1.888q-.012-4.386-.009-8.773c0-.489-.05-.431.435-.432q3.45,0,6.9,0c.313,0,.317,0,.318-.3q0-2.848,0-5.7c0-.308,0-.309-.31-.313-.071,0-.142,0-.212,0q-3.344,0-6.687,0c-.493,0-.443.046-.443-.428q0-3.361,0-6.721c0-.083-.007-.166,0-.247.018-.178-.071-.231-.231-.216-.058.005-.118,0-.177,0h-7.89c-.071,0-.142,0-.212,0-.136-.008-.193.055-.186.189,0,.082,0,.165,0,.248q0,3.361,0,6.721c0,.094,0,.189,0,.283,0,.119-.059.17-.173.17l-.283,0h-4.777c-.346,0-.346,0-.348.348,0,.012,0,.024,0,.035q0,2.777,0,5.554c0,.071,0,.142,0,.212,0,.123.062.167.175.164.083,0,.165,0,.248,0q2.37,0,4.741,0c.479,0,.441-.055.441.431q0,5.766,0,11.532a10.368,10.368,0,0,0,.148,1.9,6.491,6.491,0,0,0,3.633,4.766,12.677,12.677,0,0,0,5.078,1.25,27.926,27.926,0,0,0,4.063-.071,14.441,14.441,0,0,0,3.089-.559c.334-.1.335-.1.336-.454q0-2.919,0-5.837A.813.813,0,0,0-429.613,189.841Zm31.121-18.888a.89.89,0,0,0,.114.35q3.293,7.95,6.588,15.9,1.874,4.522,3.743,9.046a.4.4,0,0,0,.436.3c2.583-.01,5.166-.006,7.75-.007.31,0,.312,0,.427-.294q.63-1.594,1.258-3.189,4.291-10.863,8.581-21.726c.046-.117.13-.228.1-.369a.609.609,0,0,0-.345-.038q-3.61,0-7.219,0c-.37,0-.318-.033-.439.316q-1.667,4.827-3.334,9.653-1.224,3.541-2.451,7.08c-.04.115-.048.252-.17.331a.726.726,0,0,1-.2-.379q-3.122-8.34-6.24-16.682c-.12-.32-.121-.32-.477-.32q-3.875,0-7.75,0A.966.966,0,0,0-398.492,170.953Zm-20.9,4.033c-.1-.123-.057-.258-.057-.381,0-1.085,0-2.17,0-3.255,0-.464.039-.428-.41-.428q-3.538,0-7.077,0c-.423,0-.408-.049-.408.393q0,12.435,0,24.871c0,.419-.023.378.385.378q3.556,0,7.112,0c.491,0,.44.055.441-.428q0-5.36,0-10.719a19.179,19.179,0,0,1,.289-3.484,6.233,6.233,0,0,1,1.053-2.563,4.848,4.848,0,0,1,3.2-1.908,11.22,11.22,0,0,1,5.249.228.509.509,0,0,0,.307.05,1.128,1.128,0,0,0,.022-.386q0-3.131,0-6.262c0-.555,0-.567-.562-.649a13,13,0,0,0-3.314-.076,6.939,6.939,0,0,0-3.629,1.443,9.51,9.51,0,0,0-2.335,2.812C-419.2,174.751-419.24,174.906-419.392,174.986Zm19.855,8.755V171.4c0-.094,0-.189,0-.283,0-.133-.055-.2-.189-.191-.082,0-.165,0-.248,0q-3.5,0-7.005,0c-.534,0-.466-.059-.466.473q0,12.345,0,24.69c0,.059,0,.118,0,.177.006.273.006.273.271.281h7.253c.384,0,.384,0,.386-.387,0-.059,0-.118,0-.177Zm-3.982-15.483a4.263,4.263,0,0,0,4.233-4.147,4.3,4.3,0,0,0-4.209-4.257,4.276,4.276,0,0,0-4.213,4.182A4.234,4.234,0,0,0-403.519,168.258Zm112.624,6.086a4.063,4.063,0,0,0,4.112,4.107,4,4,0,0,0,4.062-4,4,4,0,0,0-4.044-4.16A4.062,4.062,0,0,0-290.9,174.344Z" transform="translate(460.385 -154.312)" fill="#fff"/>
  <path id="Path_45" data-name="Path 45" d="M612.774,328.275c-.375.342-.734.679-1.129.977a8.263,8.263,0,0,1-2.808,1.295,10.124,10.124,0,0,1-2.753.411,13.243,13.243,0,0,1-5.922-1.284,10.525,10.525,0,0,1-2.435-1.556,8.92,8.92,0,0,1-2.486-3.848,19.724,19.724,0,0,1-1.077-5.279,19.993,19.993,0,0,1,.923-7.6,9.789,9.789,0,0,1,4.749-5.646,10.867,10.867,0,0,1,5.289-1.321,12.207,12.207,0,0,1,5.239,1.139,8.033,8.033,0,0,1,3.089,2.3c.064.083.142.155.217.235.1-.071.06-.174.06-.258,0-.9,0-1.793,0-2.689,0-.267.005-.272.275-.273q3.291,0,6.582,0c.282,0,.286,0,.286.333q0,3.661,0,7.321,0,7.393,0,14.786c0,1.191.01,2.382-.092,3.57a16.82,16.82,0,0,1-1.421,5.838,10.451,10.451,0,0,1-3.564,4.217,13.363,13.363,0,0,1-5.361,2.077,23.358,23.358,0,0,1-4.365.327,24.626,24.626,0,0,1-7.012-.964,17.263,17.263,0,0,1-4.1-1.88c-.38-.237-.749-.492-1.119-.744-.256-.175-.257-.181-.092-.425q1.13-1.669,2.263-3.336.626-.922,1.253-1.842c.152-.221.155-.215.374-.07a13.642,13.642,0,0,0,6.013,2.212,17.438,17.438,0,0,0,4.093-.008,5.9,5.9,0,0,0,3.458-1.541,4.84,4.84,0,0,0,1.447-2.769A20.158,20.158,0,0,0,612.774,328.275Zm.6-10.652c0-.212.008-.425,0-.636a7.305,7.305,0,0,0-.78-3.126,4.979,4.979,0,0,0-3.434-2.706,7.243,7.243,0,0,0-1.9-.137,5.115,5.115,0,0,0-4.8,3.449,8.669,8.669,0,0,0-.488,3.858,7.015,7.015,0,0,0,.77,2.843,5,5,0,0,0,2.97,2.56,6.7,6.7,0,0,0,2.234.27,5.229,5.229,0,0,0,4.983-3.565A7.151,7.151,0,0,0,613.377,317.624Z" transform="translate(-479.024 -288.103)" fill="#bc3429"/>
  <path id="Path_46" data-name="Path 46" d="M375.3,324.362c-.141.016-.166.121-.215.192a7.534,7.534,0,0,1-3.887,2.921,12.264,12.264,0,0,1-4.762.686,10.314,10.314,0,0,1-4.965-1.466,7.047,7.047,0,0,1-3.407-5.354,8.419,8.419,0,0,1,.492-4.24,6.931,6.931,0,0,1,2.663-3.218,13.8,13.8,0,0,1,5.077-1.961,31.213,31.213,0,0,1,5.689-.581c1.026-.014,2.051-.04,3.077-.062.249-.005.259-.009.246-.261a4.178,4.178,0,0,0-1.841-3.377,5.33,5.33,0,0,0-2.943-.969,7.983,7.983,0,0,0-5.776,2.157c-.256.227-.505.46-.738.711-.158.17-.166.169-.325.007q-1.646-1.68-3.29-3.363c-.2-.2-.4-.4-.591-.609-.174-.183-.174-.187.008-.352a13.2,13.2,0,0,1,2.341-1.7,16.947,16.947,0,0,1,6.479-2.091,20.786,20.786,0,0,1,5.535.084,10.264,10.264,0,0,1,4.364,1.632,8.145,8.145,0,0,1,2.9,3.575,14.4,14.4,0,0,1,.956,3.863,30.846,30.846,0,0,1,.232,4.162q0,6.173,0,12.346c0,.509.033.436-.433.436q-3.2,0-6.4,0h-.106c-.333,0-.336,0-.337-.325,0-.826,0-1.651,0-2.476A.789.789,0,0,0,375.3,324.362Zm-1.724-8.055a20.351,20.351,0,0,0-3.978.271,7.116,7.116,0,0,0-2.607.944,2.713,2.713,0,0,0-1.425,2.223,2.348,2.348,0,0,0,1.187,2.352,5.6,5.6,0,0,0,.534.275,5.431,5.431,0,0,0,2.872.383,7.014,7.014,0,0,0,3.238-1.123,4.034,4.034,0,0,0,1.878-2.978c.081-.718.024-1.437.044-2.155,0-.165-.083-.194-.221-.193C374.59,316.309,374.082,316.307,373.575,316.307Z" transform="translate(-268.997 -285.301)" fill="#bc3429"/>
  <path id="Path_47" data-name="Path 47" d="M883.039,314.226a15.124,15.124,0,0,1-1.147,6.061,11.99,11.99,0,0,1-7.684,6.952,13.285,13.285,0,0,1-4.035.622,13,13,0,0,1-7.615-2.333,11.976,11.976,0,0,1-3.9-4.631,14.139,14.139,0,0,1-1.383-5.44,15.227,15.227,0,0,1,.67-5.754,12.079,12.079,0,0,1,6.458-7.487,13.162,13.162,0,0,1,4.13-1.164,13.3,13.3,0,0,1,7.526,1.256,11.918,11.918,0,0,1,5.483,5.468,13.6,13.6,0,0,1,1.393,4.825C883,313.2,882.994,313.8,883.039,314.226Zm-18.612.121a7.588,7.588,0,0,0,.79,3.706,4.946,4.946,0,0,0,3.438,2.7,6.935,6.935,0,0,0,2.705.054,4.91,4.91,0,0,0,3.465-2.334,6.767,6.767,0,0,0,.97-2.961,8.669,8.669,0,0,0-.46-4.139,5.268,5.268,0,0,0-2.36-2.812,4.961,4.961,0,0,0-1.875-.6,6.685,6.685,0,0,0-3.238.332,5.162,5.162,0,0,0-2.915,3.056A7.608,7.608,0,0,0,864.427,314.347Z" transform="translate(-713.963 -285.006)" fill="#bc3429"/>
  <path id="Path_48" data-name="Path 48" d="M-357.012,263.554a.813.813,0,0,1,.04.354q0,2.918,0,5.837c0,.351,0,.35-.336.454a14.441,14.441,0,0,1-3.089.559,27.921,27.921,0,0,1-4.063.071,12.677,12.677,0,0,1-5.078-1.25,6.491,6.491,0,0,1-3.633-4.766,10.374,10.374,0,0,1-.148-1.9q-.008-5.766,0-11.532c0-.486.038-.43-.441-.431q-2.371,0-4.741,0c-.083,0-.165,0-.248,0-.113,0-.179-.041-.175-.164,0-.071,0-.141,0-.212q0-2.777,0-5.554c0-.012,0-.024,0-.035,0-.345,0-.348.348-.348h4.777l.283,0c.114,0,.175-.051.173-.17,0-.094,0-.189,0-.283q0-3.361,0-6.721c0-.083,0-.165,0-.248-.007-.134.05-.2.186-.189.071,0,.141,0,.212,0h7.89c.059,0,.118,0,.177,0,.16-.014.249.039.231.216-.008.082,0,.165,0,.248q0,3.361,0,6.721c0,.474-.05.428.443.428h6.687c.071,0,.142,0,.212,0,.306,0,.31,0,.31.313q0,2.848,0,5.7c0,.3,0,.3-.318.3q-3.45,0-6.9,0c-.485,0-.435-.057-.435.432q0,4.387.009,8.773a6.891,6.891,0,0,0,.238,1.888,2.659,2.659,0,0,0,1.936,1.926A5.954,5.954,0,0,0-361,264.2a14.147,14.147,0,0,0,2.538-.141A3.819,3.819,0,0,0-357.012,263.554Z" transform="translate(387.784 -228.025)" fill="#006ea1"/>
  <path id="Path_49" data-name="Path 49" d="M108.794,307.052a.966.966,0,0,1,.372-.03h7.75c.356,0,.358,0,.477.32q3.119,8.341,6.24,16.682a.726.726,0,0,0,.2.379c.122-.079.131-.216.17-.331q1.228-3.539,2.451-7.08,1.668-4.826,3.334-9.653c.121-.349.069-.316.439-.316q3.609,0,7.219,0a.609.609,0,0,1,.345.038c.035.141-.049.252-.1.369q-4.288,10.864-8.581,21.726-.63,1.594-1.257,3.189c-.116.293-.117.294-.427.294-2.583,0-5.166,0-7.749.007a.4.4,0,0,1-.436-.3q-1.863-4.527-3.743-9.046-3.295-7.949-6.588-15.9A.89.89,0,0,1,108.794,307.052Z" transform="translate(-46.902 -290.411)" fill="#bc3429"/>
  <path id="Path_50" data-name="Path 50" d="M-148.6,305.99c.152-.08.194-.236.267-.363A9.511,9.511,0,0,1-146,302.814a6.94,6.94,0,0,1,3.629-1.443,13,13,0,0,1,3.314.076c.563.082.562.094.562.649q0,3.131,0,6.262a1.128,1.128,0,0,1-.022.386.51.51,0,0,1-.307-.05,11.22,11.22,0,0,0-5.249-.228,4.848,4.848,0,0,0-3.2,1.908,6.232,6.232,0,0,0-1.053,2.563,19.177,19.177,0,0,0-.288,3.484q0,5.36,0,10.72c0,.483.05.427-.441.428q-3.556,0-7.112,0c-.408,0-.385.041-.385-.378q0-12.435,0-24.871c0-.442-.015-.393.408-.393q3.538,0,7.077,0c.449,0,.409-.035.41.428,0,1.085,0,2.17,0,3.255C-148.658,305.732-148.7,305.867-148.6,305.99Z" transform="translate(189.594 -285.315)" fill="#006ea1"/>
  <path id="Path_51" data-name="Path 51" d="M34.347,319.871V332.11c0,.059,0,.118,0,.177,0,.386,0,.387-.386.387H26.708c-.265-.007-.265-.007-.271-.281,0-.059,0-.118,0-.177q0-12.345,0-24.691c0-.532-.067-.473.466-.473q3.5,0,7.005,0c.083,0,.165,0,.248,0,.135,0,.194.058.189.191,0,.094,0,.189,0,.283Z" transform="translate(26.502 -290.442)" fill="#006ea1"/>
  <path id="Path_52" data-name="Path 52" d="M28.229,213.68a4.2,4.2,0,0,1,.024-8.4,4.2,4.2,0,1,1-.024,8.4Z" transform="translate(28.636 -199.734)" fill="#006ea1"/>
  <path id="Path_53" data-name="Path 53" d="M1098.286,305.276a4.062,4.062,0,0,1,4.13-4.056,4.082,4.082,0,0,1-.017,8.164A4.063,4.063,0,0,1,1098.286,305.276Zm4.073,3.366a3.346,3.346,0,1,0,.022-6.693,3.346,3.346,0,0,0-.022,6.693Z" transform="translate(-928.796 -285.245)" fill="#006ea1"/>
  <path id="Path_54" data-name="Path 54" d="M681.488,371.576a7.147,7.147,0,0,1-.44,2.808,5.228,5.228,0,0,1-4.983,3.565,6.7,6.7,0,0,1-2.234-.27,5,5,0,0,1-2.971-2.56,7.017,7.017,0,0,1-.77-2.843,8.673,8.673,0,0,1,.488-3.858,5.114,5.114,0,0,1,4.8-3.449,7.244,7.244,0,0,1,1.9.137,4.979,4.979,0,0,1,3.434,2.706,7.3,7.3,0,0,1,.78,3.126C681.5,371.152,681.488,371.364,681.488,371.576Z" transform="translate(-547.135 -342.055)" fill="#fff"/>
  <path id="Path_55" data-name="Path 55" d="M435.634,439.4c.507,0,1.014,0,1.521,0,.138,0,.225.027.221.193-.021.718.037,1.438-.044,2.155a4.033,4.033,0,0,1-1.879,2.978,7.013,7.013,0,0,1-3.237,1.123,5.431,5.431,0,0,1-2.872-.383,5.593,5.593,0,0,1-.534-.275,2.348,2.348,0,0,1-1.187-2.352,2.713,2.713,0,0,1,1.425-2.223,7.116,7.116,0,0,1,2.607-.944A20.352,20.352,0,0,1,435.634,439.4Z" transform="translate(-331.056 -408.391)" fill="#fff"/>
  <path id="Path_56" data-name="Path 56" d="M923.307,371.331a7.612,7.612,0,0,1,.52-3,5.162,5.162,0,0,1,2.915-3.056,6.686,6.686,0,0,1,3.238-.332,4.962,4.962,0,0,1,1.875.6,5.269,5.269,0,0,1,2.36,2.812,8.67,8.67,0,0,1,.46,4.139,6.764,6.764,0,0,1-.97,2.961,4.909,4.909,0,0,1-3.465,2.334,6.935,6.935,0,0,1-2.705-.054,4.946,4.946,0,0,1-3.438-2.7A7.588,7.588,0,0,1,923.307,371.331Z" transform="translate(-772.843 -341.991)" fill="#fff"/>
  <path id="Path_57" data-name="Path 57" d="M1108.441,314.628a3.346,3.346,0,0,1,.022-6.692,3.346,3.346,0,1,1-.022,6.692Zm2.045-1.427c.023-.1-.035-.132-.069-.175-.307-.388-.617-.772-.923-1.161-.228-.29-.225-.291.055-.517a1.63,1.63,0,0,0,.18-.169,1.088,1.088,0,0,0-.512-1.829,1.444,1.444,0,0,0-.419-.05q-.76,0-1.521,0c-.285,0-.289,0-.29.292q0,1.468,0,2.935c0,.748,0,.745.756.679.139-.012.182-.065.181-.2,0-.342,0-.684,0-1.026,0-.09-.024-.2.1-.239a.315.315,0,0,1,.332.052,1.721,1.721,0,0,1,.158.19c.247.33.49.663.739.991.084.111.166.229.336.225C1109.887,313.2,1110.19,313.2,1110.486,313.2Z" transform="translate(-934.878 -291.231)" fill="#fff"/>
  <path id="Path_58" data-name="Path 58" d="M1125.865,324.365c-.3,0-.6,0-.9,0-.17,0-.252-.114-.336-.225-.249-.329-.492-.661-.739-.991a1.714,1.714,0,0,0-.158-.19.315.315,0,0,0-.332-.052c-.119.035-.095.149-.1.239,0,.342-.005.684,0,1.025,0,.13-.042.184-.181.2-.757.066-.756.069-.756-.679q0-1.467,0-2.935c0-.288,0-.291.29-.292q.76,0,1.521,0a1.45,1.45,0,0,1,.419.05,1.088,1.088,0,0,1,.512,1.829,1.611,1.611,0,0,1-.18.169c-.28.227-.283.228-.055.517.306.388.617.773.924,1.161C1125.831,324.232,1125.889,324.266,1125.865,324.365Zm-2.63-2.674h0c0,.129,0,.258,0,.388a.148.148,0,0,0,.15.162,1.626,1.626,0,0,0,.628-.043.569.569,0,0,0,.384-.57c-.018-.346-.292-.51-.829-.5-.329.008-.336.018-.338.456Z" transform="translate(-950.258 -302.394)" fill="#006ea1"/>
  <path id="Path_59" data-name="Path 59" d="M1130.359,327.168c0-.035,0-.07,0-.106,0-.437.009-.447.338-.456.537-.013.811.15.829.5a.569.569,0,0,1-.383.57,1.624,1.624,0,0,1-.628.043.148.148,0,0,1-.15-.162c0-.129,0-.258,0-.388Z" transform="translate(-957.381 -307.871)" fill="#fff"/>
</svg>
