<svg id="Group_59" data-name="Group 59" xmlns="http://www.w3.org/2000/svg" width="178.337" height="55.904" viewBox="0 0 178.337 55.904">
  <path id="Path_7" data-name="Path 7" d="M-47.5,296.917c-1.356,1.226-2.73,2.587-4.227,3.8a15.314,15.314,0,0,1-8.828,3.729,11.764,11.764,0,0,1-11.756-16.261c2.457-6.081,5.406-11.968,8.245-17.889,2.356-4.913,4.867-9.752,7.321-14.617A13.027,13.027,0,0,1-52,249.947c4.609-2.753,10.142-1.157,13.041,3.987,2.218,3.936,4.239,7.989,6.2,12.059,3.477,7.2,6.981,14.394,10.221,21.7a11.962,11.962,0,0,1-7.884,16.389c-4.089,1.1-7.841.014-11.2-2.338C-43.666,300.314-45.5,298.575-47.5,296.917Zm2.509-2.829a22.887,22.887,0,0,0,7.633,6.069c5.277,2.314,10.79-.247,12.074-5.614a9.949,9.949,0,0,0-.971-6.748c-3.833-8.015-7.617-16.053-11.492-24.047a87.807,87.807,0,0,0-4.693-8.783,5.736,5.736,0,0,0-9.548-.159,14.449,14.449,0,0,0-1.311,2.182c-3.928,7.883-7.884,15.753-11.731,23.675a69.856,69.856,0,0,0-4.248,9.88,8.218,8.218,0,0,0,9.991,10.283c4.04-.973,6.846-3.72,9.541-6.629-.946-1.329-1.883-2.559-2.727-3.849-2.219-3.393-4.063-6.95-4.343-11.1-.356-5.271,3.067-9.253,8.529-9.977a9.2,9.2,0,0,1,10.242,7.533,14.249,14.249,0,0,1-1.132,7.82A37.772,37.772,0,0,1-44.987,294.089Zm-2.347-2.821c.834-1.193,1.606-2.21,2.281-3.287a22.015,22.015,0,0,0,1.973-3.534,25.587,25.587,0,0,0,1.544-5.18,5.587,5.587,0,0,0-4.108-6.4c-4.551-1.179-8.311,2.341-7.5,7.021C-52.4,284.223-50.028,287.719-47.335,291.268Z" transform="translate(73.218 -248.614)"/>
  <path id="Path_8" data-name="Path 8" d="M607.751,323.589c.183,1.438-.432,1.753-1.488,1.7-1.194-.059-2.393-.014-3.7-.014v-31.06h5.191v11.322a21.415,21.415,0,0,1,3.519-1.588c5.359-1.323,10.83,2.162,12.32,7.737,1.745,6.529-1.974,12.692-8.491,13.954A7.873,7.873,0,0,1,607.751,323.589Zm4.631-2.749c3.017-.176,5.27-1.721,5.99-4.231a6.076,6.076,0,0,0-2.266-6.9,6.294,6.294,0,0,0-7.369.319,2.238,2.238,0,0,0-.939,1.979,35.545,35.545,0,0,1-.013,4.875,2.992,2.992,0,0,0,2.065,3.237A16.637,16.637,0,0,0,612.381,320.839Z" transform="translate(-445.684 -283.63)"/>
  <path id="Path_9" data-name="Path 9" d="M411.163,323.591c.123,1.591-.725,1.695-1.768,1.642-1.112-.056-2.229-.013-3.438-.013V294.144h5.226v11.587a8,8,0,0,1,4.992-2.1,10.559,10.559,0,0,1,11.042,9.041,10.928,10.928,0,0,1-7.656,12.663A8.335,8.335,0,0,1,411.163,323.591Zm.079-8.985q0,1.1,0,2.206c0,1.96.421,2.686,2.28,3.376a7.444,7.444,0,0,0,2.6.408,5.669,5.669,0,0,0,5.541-3.8,6.3,6.3,0,0,0-1.7-6.787,6.373,6.373,0,0,0-7.272-.455,2.476,2.476,0,0,0-1.471,2.619A17.026,17.026,0,0,1,411.242,314.606Z" transform="translate(-294.72 -283.574)"/>
  <path id="Path_10" data-name="Path 10" d="M218.82,356.563a37.884,37.884,0,0,1-4.158-.052c-.495-.056-.923-.7-1.479-1.149a9.655,9.655,0,0,1-11.962-.753,11.579,11.579,0,0,1-2.875-13.247,10.384,10.384,0,0,1,10.82-6.317,22.372,22.372,0,0,1,4.376,1.533c-.032-.933.714-1.149,1.744-1.1,1.149.057,2.3.013,3.533.013Zm-5.225-10.534c0-1.045.048-2.094-.023-3.134a2.092,2.092,0,0,0-.5-1.215c-2.892-3.043-8.65-1.728-9.929,2.245a6.08,6.08,0,0,0,7.257,7.984c2.226-.479,3.2-1.665,3.2-3.9Q213.6,347.016,213.594,346.028Z" transform="translate(-134.572 -314.912)"/>
  <path id="Path_11" data-name="Path 11" d="M527.044,356.51h-5.28c0-1.44,0-2.822,0-4.2,0-2.747.033-5.495-.024-8.24-.073-3.526-2.331-5.074-5.7-3.974-2.139.7-2.674,1.425-2.674,3.645,0,4.211,0,8.422,0,12.719h-5.294V335.474a34.147,34.147,0,0,1,3.972.053c.458.054.844.721,1.369,1.206a8.407,8.407,0,0,1,7.355-1.583c3.5.684,6.062,3.145,6.222,6.669C527.208,346.677,527.044,351.552,527.044,356.51Z" transform="translate(-373.129 -314.89)"/>
  <path id="Path_12" data-name="Path 12" d="M347.805,336.674c2.685-1.835,4.6-2.256,6.923-1.4,0,1.275,0,2.585,0,3.9,0,.263-.045.526-.073.824-1.385,0-2.724-.059-4.053.028a4.585,4.585,0,0,0-1.612.6,2.485,2.485,0,0,0-1.522,2.565c.1,4.372.037,8.748.037,13.221h-5.27V335.429c1.476,0,2.975-.075,4.458.053C347.063,335.514,347.38,336.2,347.805,336.674Z" transform="translate(-245.787 -314.831)"/>
  <path id="Path_13" data-name="Path 13" d="M310.157,337.62V358.5h-5.21V337.62Z" transform="translate(-217.159 -316.958)"/>
  <path id="Path_14" data-name="Path 14" d="M300.521,297.323a3.5,3.5,0,0,1,3.547-3.619,3.678,3.678,0,0,1,3.7,3.543,3.721,3.721,0,0,1-3.665,3.715A3.612,3.612,0,0,1,300.521,297.323Z" transform="translate(-213.76 -283.236)"/>
  <path id="Path_15" data-name="Path 15" d="M18.684,370.724c-2.693-3.549-5.067-7.045-5.815-11.382-.806-4.68,2.953-8.2,7.5-7.021a5.587,5.587,0,0,1,4.108,6.4,25.587,25.587,0,0,1-1.544,5.18,22.016,22.016,0,0,1-1.973,3.534C20.29,368.514,19.518,369.53,18.684,370.724Z" transform="translate(7.2 -328.07)" fill="#fff"/>
  <path id="Path_16" data-name="Path 16" d="M428.547,362.5a17.034,17.034,0,0,0-.022-2.435A2.477,2.477,0,0,1,430,357.448a6.373,6.373,0,0,1,7.272.455,6.3,6.3,0,0,1,1.7,6.787,5.668,5.668,0,0,1-5.541,3.8,7.445,7.445,0,0,1-2.6-.408c-1.859-.69-2.281-1.416-2.28-3.376Q428.547,363.605,428.547,362.5Z" transform="translate(-312.025 -331.471)" fill="#fff"/>
  <path id="Path_17" data-name="Path 17" d="M231.469,362.724q0,.987,0,1.974c0,2.24-.972,3.426-3.2,3.9a6.08,6.08,0,0,1-7.257-7.984c1.279-3.972,7.036-5.288,9.929-2.245a2.092,2.092,0,0,1,.5,1.215C231.516,360.63,231.468,361.679,231.469,362.724Z" transform="translate(-152.446 -331.608)" fill="#fff"/>
</svg>
