<svg id="Group_61" data-name="Group 61" xmlns="http://www.w3.org/2000/svg" width="247.957" height="40.981" viewBox="0 0 247.957 40.981">
  <path id="Path_30" data-name="Path 30" d="M-174.388,179.966a4.207,4.207,0,0,1,4.327-2.2c3.027.179,6.078-.233,9.095.262,4.16.682,6.745,3.231,7.138,7.221a7.727,7.727,0,0,1-3.226,7.179c4.447,3.031,5.744,7.544,3.357,11.8-1.646,2.936-4.407,4.212-7.6,4.545-3.871.4-7.769.083-11.655.164-.481.01-.96.067-1.44.1Zm6.114,20.016h-.036c0,.927.031,1.855-.011,2.78-.027.58.168.764.751.751,1.617-.035,3.235.011,4.851-.018,2.17-.038,3.543-1.409,3.808-3.748a3.932,3.932,0,0,0-2.914-4.3,16.285,16.285,0,0,0-4.827-.161,1.678,1.678,0,0,0-1.611,1.8C-168.315,198.047-168.274,199.016-168.274,199.982Zm.011-12.659h-.047c0,.765,0,1.529,0,2.294,0,.371-.033.748.528.722,1.729-.082,3.479.221,5.188-.172a3.506,3.506,0,0,0,2.545-3.884,3.2,3.2,0,0,0-3.023-3.185,33.445,33.445,0,0,0-3.384-.044,1.7,1.7,0,0,0-1.792,1.737C-168.317,185.63-168.263,186.479-168.263,187.323Z" transform="translate(174.388 -176.815)" fill="#073167"/>
  <path id="Path_31" data-name="Path 31" d="M703.611,223.32c0-3.43.016-6.861-.013-10.291-.006-.71.161-1.042.941-.982.8.062,1.623-.037,2.425.038a2.582,2.582,0,0,1,2.5,1.611c.312.931.586.79,1.171.222a8.175,8.175,0,0,1,7.946-2.13,5.64,5.64,0,0,1,3.809,2.766c.376.657.618.62,1.1.08a8.913,8.913,0,0,1,8.542-2.966c3.6.577,5.683,3.1,5.783,7.129.124,5,.039,10.008.049,15.012,0,.436-.012.806-.616.787-1.052-.032-2.115.061-3.154-.059a2.619,2.619,0,0,1-2.546-2.96c-.022-3.39-.007-6.78-.007-10.17a8.271,8.271,0,0,0-.173-1.921,2.392,2.392,0,0,0-3.323-1.973c-2.214.593-3.94,2.975-4.038,5.894-.111,3.306-.092,6.618-.044,9.926.014,1-.25,1.347-1.273,1.282a30.1,30.1,0,0,0-4.006,0c-1.016.071-1.2-.33-1.19-1.239q.046-6.295-.028-12.59c-.021-1.882-.7-2.971-1.894-3.321a3.791,3.791,0,0,0-3.929,1.569,8.639,8.639,0,0,0-1.717,5.2c-.069,2.985-.1,5.974-.013,8.957.036,1.215-.354,1.523-1.5,1.428a25.467,25.467,0,0,0-3.641,0c-.885.054-1.2-.188-1.185-1.123.053-3.389.021-6.779.021-10.169Z" transform="translate(-489.92 -202.369)" fill="#0b9cdc"/>
  <path id="Path_32" data-name="Path 32" d="M383.111,232.146c-3.783,2.088-7.483,2.138-10.988-.176-3.8-2.511-4.8-6.4-4.632-10.679a11.8,11.8,0,0,1,1.409-5.327,10.116,10.116,0,0,1,14.17-3.509c.555.362.844.509,1.348-.106.7-.85,4.1-1.351,5.066-.884.34.165.274.46.274.728-.009,7.1.1,14.2-.077,21.3-.112,4.6-3.592,8.078-8.655,9.056a17.568,17.568,0,0,1-10.881-1.4c-.657-.3-.832-.626-.517-1.288.379-.8.648-1.649,1.025-2.449.638-1.349,1.245-1.625,2.721-1.206a12.381,12.381,0,0,0,6.32.57A4.11,4.11,0,0,0,383.111,232.146Zm-8.907-10.1a6.927,6.927,0,0,0,.862,3.6,4.264,4.264,0,0,0,4.361,2.217,3.874,3.874,0,0,0,3.528-3.017,9.033,9.033,0,0,0-.055-5.357,3.665,3.665,0,0,0-2.783-2.593C376.619,216.032,374.224,218.11,374.2,222.049Z" transform="translate(-235.606 -201.886)" fill="#073167"/>
  <path id="Path_33" data-name="Path 33" d="M154.878,186.516c-2.3,3.36-4.438,6.527-6.648,9.641a1.05,1.05,0,0,0-.032,1.414c2.115,3.759,4.248,7.507,6.492,11.192.032.052-.009.148-.024.306-2.005,0-4.017.058-6.024-.022a3.059,3.059,0,0,1-2.589-1.767c-1.136-2.09-2.26-4.186-3.39-6.278a7.977,7.977,0,0,0-.416-.737,1.439,1.439,0,0,0-1.539-.457c-.7.093-.381.7-.385,1.072-.03,2.422-.042,4.845,0,7.267.013.72-.145,1-.928.966-1.618-.062-3.241-.047-4.86-.005-.666.017-.909-.152-.907-.863q.032-14.777,0-29.554c0-.708.235-.9.905-.864.888.05,1.782,0,2.673.016,2.145.045,3.066.875,3.094,3.006.05,3.875-.011,7.75.031,11.625.005.506-.449,1.329.379,1.516a1.951,1.951,0,0,0,2.239-.812c1.262-1.971,2.579-3.907,3.819-5.891a1.474,1.474,0,0,1,1.46-.786C150.355,186.542,152.483,186.516,154.878,186.516Z" transform="translate(-58.67 -176.869)" fill="#073167"/>
  <path id="Path_34" data-name="Path 34" d="M276.51,214.156a9.77,9.77,0,0,1,6.214-2.858c5.173-.406,8.548,2.37,8.83,7.484.144,2.617.095,5.238.033,7.859-.054,2.3,0,4.6.067,6.894.019.672-.141.925-.847.874-.846-.061-1.7,0-2.549-.018-2.206-.046-3.254-1.072-3.276-3.3-.031-3.106,0-6.213-.013-9.319a16.8,16.8,0,0,0-.11-2.05,2.346,2.346,0,0,0-2.585-2.308c-3.246-.076-5.582,2.559-5.619,6.4-.03,3.146-.053,6.294.021,9.439.023,1-.314,1.2-1.22,1.158-1.535-.069-3.076-.046-4.613-.006-.627.017-.82-.163-.818-.8q.033-10.469,0-20.938c0-.695.2-.912.883-.864.72.051,1.449-.024,2.174-.023A3.146,3.146,0,0,1,276.51,214.156Z" transform="translate(-161.871 -202.17)" fill="#073167"/>
  <path id="Path_35" data-name="Path 35" d="M-77.688,223.2c.007-6.827,4.911-11.641,11.865-11.647,6.989-.006,11.982,4.862,12,11.7.02,6.769-5.073,11.753-11.993,11.738C-72.787,234.983-77.7,230.108-77.688,223.2Zm17.339.111c.014-3.33-1.945-5.835-4.787-6.139-3.552-.379-6.3,2.282-6.087,6.52.155,3.059,2,5.225,4.427,5.6C-63.1,229.87-60.366,227.33-60.349,223.316Z" transform="translate(101.221 -202.396)" fill="#073167"/>
  <path id="Path_36" data-name="Path 36" d="M38.424,211.559c6.954-.031,11.977,4.837,12.02,11.651.043,6.765-4.992,11.746-11.915,11.789-6.851.042-11.979-4.895-12.008-11.561C26.491,216.49,31.4,211.59,38.424,211.559ZM33.05,223.271a6.307,6.307,0,0,0,.761,3.29,5.3,5.3,0,0,0,9.048.559,7.233,7.233,0,0,0-.368-8.153,5.415,5.415,0,0,0-5.958-1.5C34.42,218.253,33.059,220.49,33.05,223.271Z" transform="translate(22.372 -202.396)" fill="#073167"/>
  <path id="Path_37" data-name="Path 37" d="M608.581,211.617c6.985.018,11.926,4.913,11.891,11.777a11.415,11.415,0,0,1-11.925,11.666c-7.537-.09-12.084-5.449-11.951-12.126C596.724,216.431,601.742,211.6,608.581,211.617Zm5.364,11.449c-.011-.18-.018-.584-.061-.985a5.485,5.485,0,0,0-4.2-4.782,5.223,5.223,0,0,0-5.656,2.377,7.346,7.346,0,0,0,.384,7.775,4.766,4.766,0,0,0,2.322,1.676C610.611,230.422,613.956,227.718,613.945,223.066Z" transform="translate(-408.967 -202.44)" fill="#0b9cdc"/>
  <path id="Path_38" data-name="Path 38" d="M516.711,211.639a12.588,12.588,0,0,1,5.085.975c2.476,1.049,3.424,2.491,3.37,5.147-.044,2.172-.045,2.13-2.185,2.186-1.627.043-2.994-.088-3.738-1.919-.4-.98-1.666-.967-2.6-.953-3.7.055-6.238,3.21-5.829,7.125a6.15,6.15,0,0,0,7.242,5.3,9.164,9.164,0,0,0,4.9-2.489c.648-.627.9-.484,1.282.223.554,1.029,1.2,2.01,1.833,3a.831.831,0,0,1-.056,1.182c-5.682,5.79-17.033,5.065-20.516-2.9S506.818,211.7,516.711,211.639Z" transform="translate(-339.189 -202.457)" fill="#0b9cdc"/>
  <path id="Path_39" data-name="Path 39" d="M228.065,224.591c0-3.307.034-6.614-.021-9.92-.016-.934.11-1.4,1.2-1.291.749.073,1.52-.063,2.291.02,2.281.246,3.089,1.124,3.09,3.46q0,8.285,0,16.57c0,2.559,0,2.559-2.633,2.559-.971,0-1.946-.054-2.912.017-.814.059-1.011-.23-1-1.011.04-3.467.018-6.935.018-10.4Z" transform="translate(-130.107 -203.763)" fill="#073167"/>
  <path id="Path_40" data-name="Path 40" d="M232.585,177.69a3.788,3.788,0,0,1-3.82,3.857,3.846,3.846,0,0,1-3.8-3.889,3.734,3.734,0,0,1,3.782-3.749A3.686,3.686,0,0,1,232.585,177.69Z" transform="translate(-127.775 -173.909)" fill="#073167"/>
  <path id="Path_41" data-name="Path 41" d="M476.7,279.7a3.8,3.8,0,0,1-3.81,3.868,3.851,3.851,0,0,1-3.908-3.792,4,4,0,0,1,3.9-3.866A3.935,3.935,0,0,1,476.7,279.7Z" transform="translate(-312.413 -251.085)" fill="#0b9cdc"/>
  <path id="Path_42" data-name="Path 42" d="M395.13,240.142c.02-3.939,2.416-6.018,5.914-5.151a3.665,3.665,0,0,1,2.783,2.593,9.033,9.033,0,0,1,.055,5.357,3.874,3.874,0,0,1-3.528,3.017,4.264,4.264,0,0,1-4.361-2.217A6.927,6.927,0,0,1,395.13,240.142Z" transform="translate(-256.532 -219.979)" fill="#fff"/>
  <path id="Path_43" data-name="Path 43" d="M634.182,240.294c.01,4.652-3.335,7.356-7.207,6.061a4.767,4.767,0,0,1-2.322-1.676,7.346,7.346,0,0,1-.384-7.775,5.223,5.223,0,0,1,5.656-2.377,5.485,5.485,0,0,1,4.2,4.782C634.165,239.71,634.172,240.115,634.182,240.294Z" transform="translate(-429.204 -219.669)" fill="#fff"/>
</svg>
