<svg id="Group_60" data-name="Group 60" xmlns="http://www.w3.org/2000/svg" width="193.134" height="41.895" viewBox="0 0 193.134 41.895">
  <path id="Path_18" data-name="Path 18" d="M-144.3,249.957c.521.42.97.784,1.421,1.144,2.305,1.842,4.616,3.677,6.912,5.53a4.571,4.571,0,0,1,.785.859c.372.506.7,1.04,1.079,1.6-2.239,1.338-4.464,2.618-6.637,3.982s-4.314,2.812-6.459,4.237-4.276,2.866-6.472,4.339a19.337,19.337,0,0,1-2.062-5.856,20.337,20.337,0,0,1,1.317-11.866,20.642,20.642,0,0,1,18.656-12.47,20.468,20.468,0,0,1,17.537,9.513c-.384.186-.765.37-1.145.556-3.124,1.527-6.251,3.05-9.368,4.591a.8.8,0,0,1-.807-.03q-6.477-3.287-12.962-6.559c-.091-.046-.186-.086-.273-.14a.475.475,0,0,0-.567,0C-143.625,249.576-143.924,249.737-144.3,249.957Z" transform="translate(156.086 -241.457)"/>
  <path id="Path_19" data-name="Path 19" d="M-119.856,305.561c.406.845.817,1.576,1.108,2.353a8.019,8.019,0,0,1,.285,1.606q.685,4.523,1.366,9.047c.017.116.059.228.108.413l1.169-.649c.029-.29.066-.56.081-.831q.229-4.239.453-8.477c.1-1.889.222-3.778.3-5.668a1.156,1.156,0,0,1,.6-1.019c3.011-2,6-4.031,9-6.052.167-.113.338-.221.508-.332a20.182,20.182,0,0,1,.423,18.133,20.609,20.609,0,0,1-18.709,11.842,20.419,20.419,0,0,1-17.307-9.656c3.467-1.711,6.926-3.431,10.4-5.128S-123.237,307.6-119.856,305.561Z" transform="translate(143.666 -284.792)"/>
  <path id="Path_20" data-name="Path 20" d="M526.748,280.9v-9.5a22.582,22.582,0,0,1,4.1-.075c.1.36.131,27.313.031,28.085h-4.02v-2.216c-.189.156-.295.228-.382.318a7.989,7.989,0,0,1-5.682,2.427,9.187,9.187,0,0,1-6.056-1.79,9.029,9.029,0,0,1-3.031-3.978,12.791,12.791,0,0,1,.205-10.379,8.62,8.62,0,0,1,6.509-5.161,9.107,9.107,0,0,1,8.11,2.109C526.578,280.778,526.631,280.811,526.748,280.9Zm-.083,8.189c0-1.159-.01-2.318.007-3.476a1.2,1.2,0,0,0-.3-.835,6.636,6.636,0,0,0-4.922-2.464,5.672,5.672,0,0,0-4.935,2.078,7.054,7.054,0,0,0-1.612,4.223,7.637,7.637,0,0,0,1.479,5.295,5.5,5.5,0,0,0,4.489,2.266,6.627,6.627,0,0,0,5.606-2.942,1.033,1.033,0,0,0,.188-.669C526.663,291.4,526.665,290.245,526.665,289.086Z" transform="translate(-374.165 -265.162)"/>
  <path id="Path_21" data-name="Path 21" d="M296.422,325.219v9.589h-4.045c-.119-.4-.135-27.611-.013-28.13h3.943a2.981,2.981,0,0,1,.075,1.087c.018.347.014.7.022,1.145.213-.2.345-.329.475-.456a7.881,7.881,0,0,1,4.927-2.236,9.87,9.87,0,0,1,4.43.529,8.857,8.857,0,0,1,4.709,4.049,12.846,12.846,0,0,1-.076,12.339,8.9,8.9,0,0,1-8.931,4.486,8.577,8.577,0,0,1-5.263-2.245A2.247,2.247,0,0,0,296.422,325.219Zm.106-8.2c0,1.159.009,2.318-.006,3.477a1.168,1.168,0,0,0,.276.792,6.561,6.561,0,0,0,3.492,2.28,6.022,6.022,0,0,0,7.471-3.638,8.147,8.147,0,0,0,.515-3.965,7.2,7.2,0,0,0-1.418-3.726,5.614,5.614,0,0,0-5.237-2.276,6.668,6.668,0,0,0-4.832,2.832,1.22,1.22,0,0,0-.267.8C296.537,314.738,296.529,315.88,296.529,317.022Z" transform="translate(-200.466 -292.913)"/>
  <path id="Path_22" data-name="Path 22" d="M99.93,298.3h11.6v3.912c-.388.1-15.66.125-16.292.026v-27.29c.351-.117,15.608-.144,16.2-.021v3.914c-1.283.057-2.556.017-3.828.024s-2.559,0-3.839,0H99.951c-.111.43-.131,6.743-.026,7.345h10.581V290.2a16.729,16.729,0,0,1-1.767.031c-.58.008-1.16,0-1.74,0H99.96C99.84,290.643,99.813,297.645,99.93,298.3Z" transform="translate(-43.77 -268.011)"/>
  <path id="Path_23" data-name="Path 23" d="M420.977,318.223H405.034c.079.366.124.667.209.955a6.527,6.527,0,0,0,6.879,4.571,8.8,8.8,0,0,0,5.076-2.3c.2-.179.4-.368.646-.594l2.507,2.663c-.106.132-.191.255-.293.361a11.551,11.551,0,0,1-8.223,3.689,10.743,10.743,0,0,1-6.3-1.581,9.9,9.9,0,0,1-4.487-6.516,11.574,11.574,0,0,1,.761-7.593,9.713,9.713,0,0,1,7.918-5.81,9.893,9.893,0,0,1,11.014,7.6,13.818,13.818,0,0,1,.307,4.366A1,1,0,0,1,420.977,318.223Zm-4.273-3.557c-.142-2.719-2.844-5-5.829-4.948-2.694.046-5.624,2.59-5.665,4.948Z" transform="translate(-286.712 -292.765)"/>
  <path id="Path_24" data-name="Path 24" d="M686.429,327.2h-4.042v-2.225a2.461,2.461,0,0,0-.27.2,7.847,7.847,0,0,1-5.23,2.5,9.185,9.185,0,0,1-7.171-2.205,9.5,9.5,0,0,1-2.818-4.433,12.968,12.968,0,0,1,.352-9.054,8.8,8.8,0,0,1,6.154-5.455,9.391,9.391,0,0,1,7.129.879,15.047,15.047,0,0,1,1.563,1.144c.105.079.2.17.381.325V306.7h3.952Zm-4.23-10.366c0-1.142-.011-2.284.007-3.425a1.26,1.26,0,0,0-.318-.88,6.619,6.619,0,0,0-4.882-2.44,5.694,5.694,0,0,0-5.314,2.545,7.126,7.126,0,0,0-1.242,3.577,7.79,7.79,0,0,0,1.158,5.033,5.559,5.559,0,0,0,4.926,2.7,6.6,6.6,0,0,0,5.371-2.8,1.328,1.328,0,0,0,.3-.889C682.189,319.121,682.2,317.979,682.2,316.838Z" transform="translate(-497.856 -292.94)"/>
  <path id="Path_25" data-name="Path 25" d="M193.226,315.283c.16-.214.274-.359.38-.509,1.4-1.973,2.81-3.943,4.2-5.924a.752.752,0,0,1,.706-.379c1.364.021,2.729.009,4.094.009h.509c-.616.918-1.233,1.721-1.823,2.541-.607.845-1.222,1.683-1.833,2.525l-1.8,2.483-1.807,2.488L203.442,329c-.207.015-.318.029-.428.029-1.433,0-2.866-.007-4.3.008a.674.674,0,0,1-.624-.334q-2.266-3.221-4.551-6.428c-.106-.15-.219-.3-.363-.489-.151.2-.274.363-.39.527-1.49,2.1-2.984,4.2-4.46,6.3a.843.843,0,0,1-.789.421c-1.364-.021-2.729-.008-4.094-.008h-.571c1.314-1.837,2.586-3.577,3.848-5.323s2.516-3.477,3.79-5.237l-7.233-9.962c.213-.015.341-.031.469-.031,1.4,0,2.8.01,4.2-.01a.753.753,0,0,1,.708.373c1.381,1.967,2.778,3.924,4.17,5.883C192.939,314.892,193.061,315.055,193.226,315.283Z" transform="translate(-113.462 -294.748)"/>
  <path id="Path_26" data-name="Path 26" d="M633.942,329.159h-4.133c-.115-.411-.126-20.022-.012-20.506h4.146Z" transform="translate(-468.803 -294.892)"/>
  <path id="Path_27" data-name="Path 27" d="M631.831,271.656a2.877,2.877,0,0,1-2.873,2.854,2.912,2.912,0,0,1-2.867-2.928,2.87,2.87,0,0,1,5.74.075Z" transform="translate(-465.92 -263.172)"/>
  <path id="Path_28" data-name="Path 28" d="M772.962,395.945a1.444,1.444,0,1,1,2.887,0,1.444,1.444,0,1,1-2.887,0Zm1.419,1.164a1.144,1.144,0,0,0,1.159-1.164,1.135,1.135,0,1,0-2.267-.051A1.153,1.153,0,0,0,774.381,397.109Z" transform="translate(-582.715 -363.119)"/>
  <path id="Path_29" data-name="Path 29" d="M778.444,399.07l.275.492c-.442.156-.421-.329-.7-.445l-.127.448c-.2.074-.253-.035-.254-.193,0-.387,0-.774,0-1.15.46-.148.811-.1.96.11C778.729,398.519,778.695,398.686,778.444,399.07Zm-.039-.482c-.123-.078-.2-.168-.276-.163a.176.176,0,0,0,.028.35C778.227,398.774,778.3,398.676,778.405,398.587Z" transform="translate(-586.435 -366.052)"/>
</svg>
